<svg width="32" height="32" viewBox="0 0 32 32" fill="none" xmlns="http://www.w3.org/2000/svg">
<path d="M15.9997 2.6665C13.1891 2.66636 10.492 3.77552 8.49467 5.75289C6.49732 7.73027 5.36111 10.4161 5.33301 13.2265C5.33301 20.5332 14.733 28.6665 15.133 29.0132C15.3745 29.2197 15.6819 29.3333 15.9997 29.3333C16.3175 29.3333 16.6248 29.2197 16.8663 29.0132C17.333 28.6665 26.6663 20.5332 26.6663 13.2265C26.6382 10.4161 25.502 7.73027 23.5047 5.75289C21.5073 3.77552 18.8103 2.66636 15.9997 2.6665ZM15.9997 17.3332C15.0767 17.3332 14.1744 17.0595 13.407 16.5467C12.6396 16.0339 12.0414 15.3051 11.6882 14.4524C11.335 13.5996 11.2426 12.6613 11.4227 11.7561C11.6027 10.8508 12.0472 10.0193 12.6998 9.36667C13.3525 8.71403 14.184 8.26957 15.0893 8.08951C15.9945 7.90944 16.9328 8.00186 17.7855 8.35507C18.6383 8.70828 19.3671 9.30641 19.8799 10.0738C20.3926 10.8413 20.6663 11.7435 20.6663 12.6665C20.6663 13.9042 20.1747 15.0912 19.2995 15.9663C18.4243 16.8415 17.2374 17.3332 15.9997 17.3332Z" fill="#FD4A01"/>
</svg>
