<svg width="32" height="32" viewBox="0 0 32 32" fill="none" xmlns="http://www.w3.org/2000/svg">
<path d="M14.26 11.9162V13.7522H12.916V15.9962H14.26V22.6668H17.0227V15.9962H18.876C18.876 15.9962 19.0507 14.9202 19.1347 13.7428H17.0333V12.2095C17.0333 11.9788 17.3347 11.6708 17.6333 11.6708H19.1373V9.3335H17.0907C14.192 9.3335 14.26 11.5802 14.26 11.9162Z" fill="white"/>
<path d="M8.00008 5.33341C7.29284 5.33341 6.61456 5.61437 6.11446 6.11446C5.61437 6.61456 5.33341 7.29284 5.33341 8.00008V24.0001C5.33341 24.7073 5.61437 25.3856 6.11446 25.8857C6.61456 26.3858 7.29284 26.6667 8.00008 26.6667H24.0001C24.7073 26.6667 25.3856 26.3858 25.8857 25.8857C26.3858 25.3856 26.6667 24.7073 26.6667 24.0001V8.00008C26.6667 7.29284 26.3858 6.61456 25.8857 6.11446C25.3856 5.61437 24.7073 5.33341 24.0001 5.33341H8.00008ZM8.00008 2.66675H24.0001C25.4146 2.66675 26.7711 3.22865 27.7713 4.22885C28.7715 5.22904 29.3334 6.58559 29.3334 8.00008V24.0001C29.3334 25.4146 28.7715 26.7711 27.7713 27.7713C26.7711 28.7715 25.4146 29.3334 24.0001 29.3334H8.00008C6.58559 29.3334 5.22904 28.7715 4.22885 27.7713C3.22865 26.7711 2.66675 25.4146 2.66675 24.0001V8.00008C2.66675 6.58559 3.22865 5.22904 4.22885 4.22885C5.22904 3.22865 6.58559 2.66675 8.00008 2.66675Z" fill="white"/>
</svg>
