<svg width="34" height="32" viewBox="0 0 34 32" fill="none" xmlns="http://www.w3.org/2000/svg">
<path d="M34 15.8936C34 15.8102 34.0001 15.7153 33.9963 15.6052C33.9925 15.2979 33.9849 14.9526 33.9773 14.5845C33.9469 13.5257 33.8938 12.4708 33.8103 11.4766C33.6965 10.1067 33.5295 8.96451 33.3018 8.10691C33.0616 7.21192 32.5906 6.39568 31.936 5.73976C31.2814 5.08384 30.4661 4.61121 29.5716 4.36912C28.4977 4.08073 26.3955 3.90238 23.4356 3.79233C22.0278 3.7392 20.5213 3.70505 19.0148 3.68608C18.4873 3.67849 17.9978 3.67469 17.5576 3.6709H16.442C16.0018 3.67469 15.5123 3.67849 14.9848 3.68608C13.4783 3.70505 11.9718 3.7392 10.564 3.79233C7.6041 3.90617 5.49804 4.08452 4.42793 4.36912C3.53314 4.61062 2.71754 5.08304 2.06286 5.73906C1.40818 6.39507 0.937411 7.21163 0.697737 8.10691C0.46626 8.96451 0.303088 10.1067 0.189247 11.4766C0.105763 12.4708 0.0526375 13.5257 0.0222799 14.5845C0.0108958 14.9526 0.00710107 15.2979 0.00330636 15.6052C0.00330636 15.7153 -0.000488281 15.8102 -0.000488281 15.8936V16.1061C-0.000488281 16.1896 -0.000488339 16.2845 0.00330636 16.3945C0.00710107 16.7019 0.0146905 17.0472 0.0222799 17.4153C0.0526375 18.474 0.105763 19.529 0.189247 20.5232C0.303088 21.8931 0.470055 23.0353 0.697737 23.8929C1.18346 25.7105 2.61027 27.1449 4.42793 27.6307C5.49804 27.9191 7.6041 28.0974 10.564 28.2074C11.9718 28.2606 13.4783 28.2947 14.9848 28.3137C15.5123 28.3213 16.0018 28.3251 16.442 28.3289H17.5576C17.9978 28.3251 18.4873 28.3213 19.0148 28.3137C20.5213 28.2947 22.0278 28.2606 23.4356 28.2074C26.3955 28.0936 28.5015 27.9153 29.5716 27.6307C31.3893 27.1449 32.8161 25.7143 33.3018 23.8929C33.5333 23.0353 33.6965 21.8931 33.8103 20.5232C33.8938 19.529 33.9469 18.474 33.9773 17.4153C33.9887 17.0472 33.9925 16.7019 33.9963 16.3945C33.9963 16.2845 34 16.1896 34 16.1061V15.8936V15.8936ZM31.2679 16.091C31.2679 16.1707 31.2679 16.2579 31.2641 16.3604C31.2603 16.6564 31.2527 16.9827 31.2451 17.3356C31.2185 18.345 31.1654 19.3544 31.0857 20.2917C30.9833 21.5136 30.8391 22.5154 30.6607 23.1871C30.4254 24.0636 29.7348 24.7581 28.862 24.9895C28.0651 25.202 26.0577 25.3728 23.3293 25.4753C21.9481 25.5284 20.4605 25.5625 18.9768 25.5815C18.4569 25.5891 17.975 25.5929 17.5424 25.5929H16.4571L15.0227 25.5815C13.539 25.5625 12.0553 25.5284 10.6702 25.4753C7.94183 25.369 5.93063 25.202 5.13754 24.9895C4.26476 24.7543 3.57412 24.0636 3.33885 23.1871C3.1605 22.5154 3.0163 21.5136 2.91384 20.2917C2.83415 19.3544 2.78482 18.345 2.75447 17.3356C2.74308 16.9827 2.73929 16.6526 2.73549 16.3604C2.73549 16.2579 2.7317 16.1669 2.7317 16.091V15.9088C2.7317 15.8291 2.7317 15.7418 2.73549 15.6394C2.73929 15.3434 2.74688 15.0171 2.75447 14.6642C2.78103 13.6548 2.83415 12.6454 2.91384 11.7081C3.0163 10.4862 3.1605 9.48438 3.33885 8.81272C3.57412 7.93614 4.26476 7.24171 5.13754 7.01024C5.93443 6.79773 7.94183 6.62697 10.6702 6.52451C12.0515 6.47139 13.539 6.43724 15.0227 6.41826C15.5426 6.41067 16.0245 6.40688 16.4571 6.40688H17.5424L18.9768 6.41826C20.4605 6.43724 21.9443 6.47139 23.3293 6.52451C26.0577 6.63077 28.0689 6.79773 28.862 7.01024C29.7348 7.24551 30.4254 7.93614 30.6607 8.81272C30.8391 9.48438 30.9833 10.4862 31.0857 11.7081C31.1654 12.6454 31.2147 13.6548 31.2451 14.6642C31.2565 15.0171 31.2603 15.3472 31.2641 15.6394C31.2641 15.7418 31.2679 15.8329 31.2679 15.9088V16.091ZM13.6225 21.0848L22.4262 15.9619L13.6225 10.915V21.0848Z" fill="white"/>
</svg>
